<?xml version="1.0" standalone="no"?>
<!DOCTYPE svg PUBLIC "-//W3C//DTD SVG 20010904//EN"
 "http://www.w3.org/TR/2001/REC-SVG-20010904/DTD/svg10.dtd">
<svg version="1.0" xmlns="http://www.w3.org/2000/svg"
 width="700.000000pt" height="700.000000pt" viewBox="0 0 700.000000 700.000000"
 preserveAspectRatio="xMidYMid meet">
<metadata>
Created by potrace 1.11, written by Peter Selinger 2001-2013
</metadata>
<g transform="translate(0.000000,700.000000) scale(0.100000,-0.100000)"
fill="#000000" stroke="none">
<path d="M3327 6844 c-1 -1 -44 -5 -95 -9 -52 -4 -102 -8 -111 -10 -10 -2 -42
-6 -72 -10 -230 -28 -523 -105 -775 -205 -568 -226 -1082 -623 -1449 -1120
-164 -222 -261 -391 -395 -685 -5 -11 -25 -60 -44 -110 -112 -293 -184 -614
-212 -944 -11 -135 -5 -472 11 -581 3 -19 7 -56 10 -82 15 -159 109 -565 145
-630 6 -10 10 -23 10 -30 0 -21 111 -290 161 -389 l48 -96 -41 -39 c-251 -242
-341 -633 -222 -966 133 -378 493 -627 894 -619 94 2 144 10 238 37 302 88
547 334 632 634 27 97 35 163 33 278 -4 249 -97 462 -280 640 -232 226 -525
306 -865 237 -15 -3 -59 -17 -97 -30 -37 -14 -73 -25 -78 -25 -10 0 -76 134
-126 255 -58 140 -136 395 -166 545 -17 83 -19 94 -27 147 -3 26 -8 56 -10 65
-3 20 -13 121 -19 203 -6 79 -6 367 0 430 3 28 7 75 10 105 3 30 7 66 10 80 2
14 7 43 10 65 5 35 8 54 20 126 2 9 15 63 28 120 197 814 743 1539 1477 1959
94 53 259 136 325 162 28 11 64 26 80 33 47 21 230 81 335 109 323 86 663 117
1010 92 217 -15 450 -58 659 -121 102 -30 126 -31 168 -5 81 49 72 184 -14
218 -81 32 -338 98 -453 116 -94 15 -180 27 -225 31 -27 3 -77 8 -110 12 -57
6 -423 12 -428 7z"/>
<path d="M5620 6699 c-149 -26 -252 -65 -376 -144 -69 -44 -174 -144 -230
-219 -191 -252 -236 -616 -114 -910 201 -483 770 -705 1244 -486 35 17 66 30
69 30 10 0 120 -235 167 -358 74 -196 142 -449 164 -612 3 -25 8 -54 10 -65
24 -128 38 -535 22 -652 -3 -21 -8 -67 -11 -103 -31 -327 -142 -703 -300
-1022 -193 -388 -421 -681 -779 -996 -66 -59 -238 -186 -321 -237 -44 -27 -82
-52 -85 -55 -8 -8 -95 -56 -210 -114 -228 -116 -457 -197 -745 -263 -51 -11
-248 -42 -320 -49 -99 -10 -472 -12 -580 -2 -79 7 -211 24 -257 34 -13 2 -36
7 -53 10 -58 10 -231 53 -314 78 -87 26 -117 25 -162 -1 -25 -15 -50 -56 -55
-91 -4 -26 17 -79 40 -101 48 -45 433 -141 671 -167 33 -3 69 -8 80 -11 38 -9
540 -11 615 -2 41 4 99 11 128 14 119 13 310 52 487 100 167 46 390 132 567
221 114 57 145 74 223 121 478 288 874 682 1160 1153 64 105 179 330 219 430
15 36 31 74 36 85 25 54 93 269 123 392 70 277 99 516 100 803 0 127 -9 311
-18 355 -2 11 -7 45 -10 75 -12 111 -17 137 -41 250 -58 274 -150 539 -271
787 l-74 152 58 73 c301 378 266 916 -80 1245 -150 142 -286 212 -487 248 -81
14 -217 16 -290 4z"/>
<path d="M3427 5385 c-1 -1 -49 -5 -107 -9 -58 -3 -117 -8 -133 -11 -15 -3
-55 -10 -90 -16 -323 -56 -687 -245 -936 -486 -22 -21 -22 -23 -5 -24 11 0
100 -2 199 -3 206 -4 238 -11 360 -82 44 -25 96 -55 115 -66 277 -160 370
-220 376 -244 8 -31 -17 -59 -86 -96 -25 -14 -79 -46 -120 -71 -73 -44 -143
-69 -178 -62 -9 2 -24 4 -32 4 -8 1 -69 33 -135 71 -185 109 -195 111 -541
112 -161 0 -296 -2 -302 -6 -5 -3 -29 -50 -52 -103 -23 -54 -45 -107 -50 -118
-33 -73 -88 -290 -97 -380 l-5 -50 404 1 c371 1 408 3 463 21 53 17 478 262
1185 682 107 63 204 120 215 126 11 6 103 60 204 120 243 143 247 144 515 145
l170 0 -36 33 c-113 102 -176 151 -283 219 -207 132 -472 235 -675 263 -25 3
-52 8 -60 10 -22 6 -277 24 -283 20z"/>
<path d="M4420 4377 c-36 -12 -159 -78 -275 -146 -115 -68 -272 -161 -348
-205 -76 -45 -150 -88 -165 -97 -15 -9 -144 -85 -287 -169 -143 -84 -325 -192
-405 -239 -80 -47 -149 -88 -155 -90 -5 -2 -37 -21 -70 -40 -137 -83 -136 -83
-657 -82 l-448 0 0 -23 c0 -38 37 -213 64 -301 27 -91 49 -147 100 -258 l35
-78 313 3 c352 4 349 3 485 84 41 24 76 44 78 44 1 0 45 25 96 56 52 31 108
65 124 74 17 10 80 46 140 82 107 63 773 455 827 487 280 164 403 232 448 247
50 16 98 18 513 19 l457 0 0 25 c0 92 -87 390 -159 544 l-40 87 -303 -1 c-286
-1 -307 -2 -368 -23z"/>
<path d="M4425 3286 c-39 -12 -89 -34 -112 -49 -24 -15 -44 -27 -46 -27 -2 0
-68 -38 -146 -85 -78 -47 -146 -85 -151 -85 -6 0 -10 -4 -10 -10 0 -5 -4 -10
-10 -10 -5 0 -91 -49 -192 -108 -661 -392 -1104 -651 -1134 -663 -68 -27 -138
-35 -306 -34 -174 0 -176 0 -160 -19 75 -86 289 -242 437 -318 271 -141 546
-206 861 -206 133 0 306 19 404 43 14 3 35 8 48 11 122 25 370 130 507 214 63
38 213 147 241 174 6 6 26 25 45 41 70 63 77 60 -139 61 -172 1 -204 3 -254
21 -63 23 -586 327 -605 352 -19 24 -15 45 10 68 29 28 277 173 297 174 8 1
29 2 47 4 45 3 89 -15 208 -85 162 -96 184 -100 532 -100 l292 0 40 83 c79
169 137 362 157 527 l6 46 -399 1 c-386 1 -401 0 -468 -21z"/>
</g>
</svg>
