<svg xmlns="http://www.w3.org/2000/svg" xmlns:xlink="http://www.w3.org/1999/xlink" viewBox="0 0 573.99 119.14">
  <defs>
    <style>.cls-1{fill:#fff;}.cls-2{fill:url(#linear-gradient);}</style>
    <linearGradient id="linear-gradient" x1="50.9" x2="50.9" y2="119.14" gradientUnits="userSpaceOnUse">
      <stop offset="0" stop-color="#f96"/>
      <stop offset="1" stop-color="#ff5e62"/>
    </linearGradient>
  </defs>
  <title>Hatchbox</title>
  <g id="Layer_2" data-name="Layer 2">
    <g id="Layer_1-2" data-name="Layer 1">
      <path class="cls-1" d="M176.14,64V94.52h-14.3V64c0-8-4.61-10.45-10.06-10.45-3.86,0-10.16,2.36-9.88,13.65V94.52h-14V23.31h14V47.39a21,21,0,0,1,13.83-5.55C170.69,41.84,176.14,50.49,176.14,64Z"/><path class="cls-1" d="M225.35,89.35c-2.17,2.91-8.38,6.3-15.71,6.3-16.37,0-26-12.14-26-27s9.6-27,26-27c7.52,0,13.07,3,15.71,6.49V42.78h13.92V94.52H225.35ZM211.71,54c-8.94,0-14.21,6.2-14.21,14.67,0,8.19,5.55,14.58,14.21,14.58s14.2-5.55,14.2-14.58C225.91,60.09,220.45,54,211.71,54Z"/><path class="cls-1" d="M266.83,76.08c0,2.82.1,7.72,6.4,7.72a32.28,32.28,0,0,0,3.58-.19V95.46c-1.7.19-4.33.38-6.31.38-10.91,0-17.59-2-17.59-12.89V54.26h-6.3V41.93h6.3V28.11h13.92V41.93h10.35V54.26H266.83Z"/><path class="cls-1" d="M281.79,68.84c0-14.86,12.7-26.91,28.13-26.91A28,28,0,0,1,335.32,57l-12.7,5c-3.1-5.17-7.62-7.71-12.7-7.71-8.18,0-14.11,6.2-14.11,14.58s6,14.58,14.2,14.58a14.68,14.68,0,0,0,13.08-7.53l12,4.71c-5,10.16-13.17,15.24-25,15.24C294.59,95.84,281.79,83.7,281.79,68.84Z"/><path class="cls-1" d="M390,64V94.52h-14.3V64c0-8-4.61-10.45-10.06-10.45-3.86,0-10.17,2.36-9.88,13.65V94.52h-14V23.31h14V47.39a21,21,0,0,1,13.83-5.55C384.52,41.84,390,50.49,390,64Z"/><path class="cls-1" d="M400,94.52V23.4h13.93V48.14c2.63-3.48,8.18-6.49,15.7-6.49,16.37,0,26,12.14,26,27s-9.6,27-26,27c-7.33,0-13.54-3.39-15.7-6.3v5.17Zm27.57-11.29c8.65,0,14.2-6.39,14.2-14.58,0-8.47-5.27-14.67-14.2-14.67-8.75,0-14.21,6.11-14.21,14.67C413.31,77.68,418.77,83.23,427.52,83.23Z"/><path class="cls-1" d="M460.82,68.74c0-14.76,12.61-26.9,28-26.9S517.08,54,517.08,68.74c0,15-12.8,27-28.23,27S460.82,83.7,460.82,68.74Zm13.83,0c0,8.56,6.11,14.77,14.2,14.77s14.21-6.39,14.21-14.77-6.21-14.58-14.21-14.58A14.28,14.28,0,0,0,474.65,68.74Z"/><path class="cls-1" d="M545.3,79.19,534.48,94.52H516.89l19.47-25.59L516.61,43h17.5l11.19,15.9,11-15.9H574l-20,26,19.56,25.59H555.83Z"/><path class="cls-2" d="M91.62,0C86,0,81.43,5.18,81.43,11.51V53.64c0,6.34-4.58,11.51-10.17,11.51S61.08,60,61.08,53.64V34.17c0-6.33-4.58-11.51-10.18-11.51S40.72,27.84,40.72,34.17v3.36C40.72,43.86,36.14,49,30.54,49S20.36,43.86,20.36,37.53V30.89c0-6.33-4.58-11.51-10.18-11.51S0,24.56,0,30.89v47.8C0,85,4.58,90.2,10.18,90.2S20.36,85,20.36,78.69V72.05c0-6.33,4.58-11.5,10.18-11.5s10.18,5.17,10.18,11.5v35.59c0,6.33,4.58,11.5,10.18,11.5s10.18-5.17,10.18-11.5V88.17c0-6.33,4.58-11.51,10.18-11.51s10.17,5.18,10.17,11.51v14.51c0,6.33,4.59,11.51,10.19,11.51S101.8,109,101.8,102.68V11.51C101.8,5.18,97.22,0,91.62,0Z"/>
    </g>
  </g>
</svg>
